<svg xmlns="http://www.w3.org/2000/svg" width="14" height="14" viewBox="0 0 14 14" fill="none">
<rect width="14" height="14" rx="7" fill="#0094FF"/>
<path d="M3.625 4.97498C3.625 4.76787 3.79289 4.59998 4 4.59998H8.125C8.33211 4.59998 8.5 4.76787 8.5 4.97498V8.72498H4C3.79289 8.72498 3.625 8.55708 3.625 8.34998V4.97498Z" fill="white"/>
<path d="M8.5 5.53748H9.18976C9.4589 5.53748 9.70741 5.68169 9.84094 5.91537L10.2762 6.67704C10.3409 6.79037 10.375 6.91863 10.375 7.04915V8.34998C10.375 8.55708 10.2071 8.72498 10 8.72498H8.5V5.53748Z" fill="white"/>
<circle cx="5.5" cy="8.72498" r="0.75" fill="white" stroke="#0094FF" stroke-width="0.4125"/>
<circle cx="8.5" cy="8.72498" r="0.75" fill="white" stroke="#0094FF" stroke-width="0.4125"/>
</svg>